<svg xmlns="http://www.w3.org/2000/svg" width="160" height="40" viewBox="0 0 160 40"><path fill="#fff" d="M24.696 40.074c3.622 0 6.567-3.82 8.284-9.373 1.717-5.552-.18-10.038-2.33-13.824C25.637 8.056 26.885 0 26.885 0s-1.64.87-2.19.87c-.51 0-2.043-.87-2.043-.87s1.164 8.057-3.515 16.875c-2.01 3.786-3.78 8.272-2.177 13.825 1.602 5.555 4.354 9.374 7.736 9.374zM15.168 23.23c.758-5.048 4.335-9.24 5.705-13.13 1.39-3.945 1.055-6.98 1.055-6.98l-1.153-.884S19.64 11.67 12.83 16.818c-3.726 2.815-5.2 6.588-5.247 10.24-.14 10.96 12.227 15.66 9.652 8.068-1.134-3.33-2.983-5.794-2.067-11.896zM8.17 16.565c4.366-2.066 7.694-4.52 7.694-4.52s-1.797 2.56-2.41 3.03C10.857 17.07 8.71 18.497 7.33 21.6c-.95 2.145-1.267 4.57-.847 6.87.76 4.147 1.99 4.44 1.187 6.017-2.615 5.128-10.116-7.524-4.824-13.928 1.792-2.166 3.446-3.108 5.325-3.997zM34.668 23.25c-.757-5.047-4.335-9.237-5.705-13.13-1.39-3.944-1.055-6.98-1.055-6.98l1.154-.88s1.134 9.433 7.945 14.58c3.726 2.816 5.2 6.59 5.247 10.24.142 10.963-12.227 15.662-9.65 8.07 1.13-3.335 2.98-5.798 2.064-11.9zM41.665 16.586c-4.365-2.066-7.693-4.522-7.693-4.522s1.797 2.56 2.41 3.03c2.6 1.997 4.748 3.425 6.123 6.53.952 2.146 1.268 4.57.847 6.87-.757 4.147-1.99 4.442-1.187 6.015 2.614 5.13 10.116-7.523 4.822-13.925-1.79-2.167-3.443-3.11-5.322-4zM62.557 15.9h8.9v17.515h2.598l-.557 2.65h-6.912v-17.69h-4.028V15.9zm8.9-9.98l-.015 6.588h-4.856V5.92h4.872zm2.11 9.978h6.453V5.855h4.86v10.043h6.188l-.556 2.472H84.88v17.728h-4.86V18.37h-6.452v-2.472zM94.493 8.39h5.386V5.89h4.9V8.39h10.28V5.89H120V8.39h4.67l-.555 2.473H120v2.472h-4.94v-2.472h-10.28l-.035 2.472h-4.9l.035-2.472h-5.386V8.39zm.555 12.396h14.056l-.556 2.432h-3.77v9.786c0 1.658-1.483 3.03-3.14 3.03H98.35V33.77h.1c.445 0 1.44-.193 1.44-.607v-9.945h-4.84v-2.432zm.846-5.058H107.7l-.555 2.548h-11.25v-2.548zm14.723 5.058h14.054l-.555 2.432-4.115.03v9.782c0 1.66-1.103 3.003-2.792 3.003h-3.286v-2.265h.126c.446 0 1.08-.192 1.08-.606v-9.945h-4.51v-2.43zm.877-5.058h11.774l-.555 2.548h-11.22v-2.548zM132.042 36.004v-8.16h24.487v5.128c0 1.658-1.34 3.03-3.032 3.03h-21.456v.002zm22.086-25.14H134.5v2.47h-4.875V8.393h11.945V5.89h4.87V8.39H159l-.016 4.943h-4.856v-2.472zm-17.04 2.218h4.9l-1.252 1.235 15.83.012v2.54l-8.6 4.167 5.528 2.398L159 23.4l-1.113 3.024h-6.064l-7.26-3.285-6.842 3.33h-8.093v-2.79h7.272l4.044-2.086-5.226-2.328-1.234 1.186-4.857.03 7.46-7.4zm-.16 20.496h13.575c.67 0 1.21-.543 1.21-1.21V30.27H136.93v3.308zm1.364-16.866l5.683 2.552 5.754-2.552H138.29zM95.3 25.68h2.41v7.215l-2.41.525zM106.557 25.638h2.406v7.74l-2.406-.483zM110.96 25.638h2.408v7.257l-2.418.483zM121.528 25.637h2.408v7.74l-2.408-.482z"/></svg>